<svg width="16" height="16" viewBox="0 0 16 16" fill="none" xmlns="http://www.w3.org/2000/svg">
<path d="M0.266667 10.9333C0.266667 11.2162 0.379048 11.4875 0.579086 11.6876C0.779125 11.8876 1.05044 12 1.33333 12H7.32293C7.35601 12.0558 7.39567 12.1073 7.44107 12.1536L10.2 14.9131C10.3549 15.067 10.5644 15.1535 10.7828 15.1535C11.0012 15.1535 11.2107 15.067 11.3656 14.9131C11.4863 14.7914 11.5661 14.6352 11.5938 14.4661C11.6215 14.297 11.5958 14.1234 11.5203 13.9696L11.9653 13.5243L14.1176 15.6771C14.2194 15.7821 14.3411 15.8657 14.4756 15.9233C14.6101 15.9808 14.7547 16.011 14.9009 16.0121C15.0472 16.0132 15.1922 15.9852 15.3275 15.9297C15.4629 15.8742 15.5858 15.7924 15.6892 15.689C15.7927 15.5856 15.8745 15.4626 15.9299 15.3272C15.9854 15.1919 16.0133 15.0469 16.0122 14.9006C16.0111 14.7544 15.9808 14.6098 15.9233 14.4753C15.8658 14.3408 15.7821 14.2192 15.6771 14.1173L13.5248 11.9645L13.9696 11.52C14.1231 11.5968 14.297 11.6232 14.4664 11.5954C14.6358 11.5676 14.7922 11.487 14.9131 11.3651C15.0671 11.2102 15.1536 11.0006 15.1536 10.7821C15.1536 10.5637 15.0671 10.3541 14.9131 10.1992L12.5333 7.81893V6.19547C12.7053 6.00138 12.8001 5.75102 12.8 5.49173V3.2C12.8 2.9171 12.6876 2.64579 12.4876 2.44575C12.2875 2.24571 12.0162 2.13333 11.7333 2.13333H9.86667V1.06667C9.86667 0.783769 9.75429 0.512458 9.55425 0.31242C9.35421 0.112381 9.0829 0 8.8 0L4 0C3.7171 0 3.44579 0.112381 3.24575 0.31242C3.04571 0.512458 2.93333 0.783769 2.93333 1.06667V2.13333H1.06667C0.783769 2.13333 0.512459 2.24571 0.31242 2.44575C0.112381 2.64579 2.7329e-07 2.9171 2.7329e-07 3.2V5.49173C-0.00018584 5.75095 0.0946924 6.00124 0.266667 6.1952V10.9333ZM7.21013 11.4667H1.33333C1.19188 11.4667 1.05623 11.4105 0.95621 11.3105C0.856191 11.2104 0.8 11.0748 0.8 10.9333V6.52187C0.812 6.52507 0.8232 6.5304 0.835467 6.53307L4.8 7.41333V8.26667C4.8 8.47884 4.88429 8.68232 5.03432 8.83235C5.18434 8.98238 5.38783 9.06667 5.6 9.06667H7.2C7.41217 9.06667 7.61566 8.98238 7.76569 8.83235C7.91572 8.68232 8 8.47884 8 8.26667V7.41333L11.9645 6.53333C11.9768 6.53067 11.9877 6.52533 11.9997 6.5224V7.32453C11.8412 7.23213 11.6571 7.19345 11.4748 7.21426C11.2925 7.23507 11.1219 7.31425 10.9883 7.44C10.8675 7.56162 10.7878 7.7179 10.7601 7.88702C10.7324 8.05615 10.7582 8.2297 10.8339 8.38347L8.38187 10.8355C8.22799 10.7625 8.05561 10.7379 7.88747 10.7649C7.71933 10.7919 7.56331 10.8692 7.44 10.9867C7.31187 11.1165 7.23094 11.2855 7.21013 11.4667ZM5.33333 8.26667V7.46667H7.46667V8.26667C7.46667 8.33739 7.43857 8.40522 7.38856 8.45523C7.33855 8.50524 7.27073 8.53333 7.2 8.53333H5.6C5.52928 8.53333 5.46145 8.50524 5.41144 8.45523C5.36143 8.40522 5.33333 8.33739 5.33333 8.26667ZM10.9885 14.536C10.9339 14.5904 10.8599 14.621 10.7828 14.621C10.7057 14.621 10.6317 14.5904 10.5771 14.536L7.81813 11.7765C7.77847 11.7352 7.75175 11.6832 7.74128 11.627C7.73081 11.5707 7.73705 11.5125 7.75922 11.4597C7.78139 11.4069 7.81853 11.3618 7.86605 11.3299C7.91358 11.2979 7.96941 11.2806 8.02667 11.28C8.06467 11.2802 8.10226 11.2879 8.13727 11.3027C8.17228 11.3175 8.20402 11.339 8.23067 11.3661L10.9885 14.1243C11.0431 14.1789 11.0738 14.2529 11.0738 14.3301C11.0738 14.4073 11.0431 14.4814 10.9885 14.536ZM15.3 14.4944C15.4045 14.6017 15.4626 14.7458 15.4616 14.8956C15.4607 15.0453 15.4008 15.1887 15.2949 15.2946C15.189 15.4005 15.0456 15.4605 14.8959 15.4615C14.7461 15.4625 14.602 15.4045 14.4947 15.3L12.3424 13.1467L13.1477 12.3413L15.3 14.4944ZM11.1771 13.5587L9.98613 12.3675L8.7952 11.1763L11.1771 8.7944L12.368 9.98534L13.5589 11.1763L11.1771 13.5587ZM14.536 10.576C14.5906 10.6306 14.6212 10.7047 14.6212 10.7819C14.6212 10.8591 14.5906 10.9331 14.536 10.9877C14.4806 11.0405 14.4069 11.07 14.3304 11.07C14.2539 11.07 14.1802 11.0405 14.1248 10.9877L11.3656 8.22853C11.311 8.17393 11.2804 8.09988 11.2804 8.02267C11.2804 7.94546 11.311 7.87141 11.3656 7.8168C11.4207 7.76327 11.4944 7.73333 11.5712 7.73333C11.648 7.73333 11.7217 7.76327 11.7768 7.8168L14.536 10.576ZM3.46667 1.06667C3.46667 0.925218 3.52286 0.789563 3.62288 0.689543C3.7229 0.589524 3.85855 0.533333 4 0.533333H8.8C8.94145 0.533333 9.07711 0.589524 9.17712 0.689543C9.27714 0.789563 9.33333 0.925218 9.33333 1.06667V2.13333H8.8V1.6C8.8 1.45855 8.74381 1.3229 8.64379 1.22288C8.54377 1.12286 8.40812 1.06667 8.26667 1.06667H4.53333C4.39189 1.06667 4.25623 1.12286 4.15621 1.22288C4.05619 1.3229 4 1.45855 4 1.6V2.13333H3.46667V1.06667ZM8.26667 1.6V2.13333H4.53333V1.6H8.26667ZM0.533334 3.2C0.533334 3.05855 0.589524 2.9229 0.689543 2.82288C0.789563 2.72286 0.925218 2.66667 1.06667 2.66667H11.7333C11.8748 2.66667 12.0104 2.72286 12.1105 2.82288C12.2105 2.9229 12.2667 3.05855 12.2667 3.2V5.49173C12.2672 5.6132 12.226 5.73116 12.15 5.82591C12.074 5.92065 11.9678 5.98644 11.8491 6.01227L7.70427 6.93333H5.09573L0.9512 6.01227C0.832464 5.98649 0.726177 5.92073 0.650115 5.82598C0.574053 5.73123 0.532828 5.61324 0.533334 5.49173V3.2Z" fill="#838383"/>
</svg>
