<svg width="10" height="10" viewBox="0 0 10 10" fill="none" xmlns="http://www.w3.org/2000/svg">
<path d="M8.62518 0H1.37482C0.61676 0 0 0.616638 0 1.37482V5.81189C0 6.56836 0.614075 7.18402 1.36993 7.18671V9.2002L4.26355 7.18671H8.62518C9.38324 7.18671 10 6.56995 10 5.81189V1.37482C10 0.616638 9.38324 0 8.62518 0ZM9.41406 5.81189C9.41406 6.24683 9.06018 6.60077 8.62518 6.60077H4.07971L1.95587 8.07867V6.60077H1.37482C0.939819 6.60077 0.585938 6.24683 0.585938 5.81189V1.37482C0.585938 0.939758 0.939819 0.585938 1.37482 0.585938H8.62518C9.06018 0.585938 9.41406 0.939758 9.41406 1.37482V5.81189Z" fill="#8F8F8F"/>
<path d="M2.67676 2.07031H7.32385V2.65625H2.67676V2.07031Z" fill="#8F8F8F"/>
<path d="M2.67676 3.32031H7.32385V3.90625H2.67676V3.32031Z" fill="#8F8F8F"/>
<path d="M2.67676 4.57031H7.32385V5.15625H2.67676V4.57031Z" fill="#8F8F8F"/>
</svg>
