<svg width="23" height="23" viewBox="0 0 23 23" fill="none" xmlns="http://www.w3.org/2000/svg">
<path d="M17.2317 0H5.75C2.59206 0 0 2.59206 0 5.76825V17.25C0 20.4079 2.59206 23 5.75 23H17.2317C20.4079 23 23 20.4079 23 17.2317V5.76825C23 2.59206 20.4079 0 17.2317 0ZM14.5849 11.5H12.4127V18.619H9.6746V11.5H8.21429V8.57937H9.49206V7.3381C9.49206 6.16984 10.0762 4.32619 12.5405 4.32619H14.7857V6.75397H13.1976C12.9421 6.75397 12.5952 6.91825 12.5952 7.48413V8.57937H14.8405L14.5849 11.5Z" fill="#FE5000" fill-opacity="0.74"/>
</svg>
