<svg width="18" height="18" viewBox="0 0 18 18" fill="none" xmlns="http://www.w3.org/2000/svg">
<path d="M8.99999 3.75C6.10048 3.75 3.75 6.10051 3.75 8.99999C3.75 11.8995 6.10048 14.25 8.99999 14.25C11.8982 14.2469 14.2469 11.8982 14.25 8.99999C14.25 6.10048 11.8995 3.75 8.99999 3.75ZM8.99999 13.5C6.51472 13.5 4.49999 11.4853 4.49999 8.99999C4.49999 6.51472 6.51472 4.49999 8.99999 4.49999C11.4842 4.50266 13.4973 6.51581 13.5 8.99999C13.5 11.4853 11.4853 13.5 8.99999 13.5Z" fill="#838383"/>
<path d="M17.25 7.12501H15.8696C15.7118 6.54616 15.4808 5.98982 15.1823 5.4694L16.1595 4.49216C16.4524 4.1992 16.4525 3.72414 16.1595 3.43129L14.5684 1.84054C14.2755 1.54775 13.8007 1.54775 13.5079 1.84054L12.5306 2.81777C12.0101 2.5194 11.4538 2.28843 10.875 2.1304V0.749988C10.875 0.335777 10.5392 0 10.125 0H7.875C7.46079 0 7.12501 0.335777 7.12501 0.749988V2.13036C6.54623 2.28839 5.98989 2.51937 5.4694 2.81774L4.49216 1.8405C4.19927 1.54772 3.72452 1.54772 3.43167 1.8405L1.8405 3.43125C1.54768 3.72421 1.54754 4.19927 1.8405 4.49213L2.81774 5.46936C2.51916 5.98978 2.28818 6.54613 2.13036 7.12498H0.749988C0.335777 7.12501 0 7.46079 0 7.875V10.125C0 10.5392 0.335777 10.875 0.749988 10.875H2.13036C2.28818 11.4538 2.51916 12.0102 2.81774 12.5306L1.8405 13.5078C1.54768 13.8008 1.54754 14.2759 1.8405 14.5687L3.43164 16.1595C3.72452 16.4522 4.19927 16.4522 4.49212 16.1595L5.46936 15.1822C5.98989 15.4806 6.5462 15.7116 7.12498 15.8696V17.25C7.12498 17.6642 7.46075 18 7.87496 18H10.125C10.5392 18 10.875 17.6642 10.875 17.25V15.8696C11.4537 15.7116 12.0101 15.4806 12.5306 15.1822L13.5078 16.1595C13.8007 16.4522 14.2754 16.4522 14.5683 16.1595L16.1594 14.5687C16.4523 14.2758 16.4524 13.8007 16.1594 13.5078L15.1822 12.5306C15.4808 12.0102 15.7117 11.4538 15.8696 10.875H17.2499C17.6642 10.875 17.9999 10.5392 17.9999 10.125V7.875C18 7.46079 17.6642 7.12501 17.25 7.12501ZM17.25 10.125H15.5771C15.402 10.1248 15.25 10.2459 15.2111 10.4168C15.0523 11.1158 14.7755 11.7826 14.3925 12.3885C14.2993 12.5368 14.3211 12.7298 14.445 12.8535L15.6292 14.0385L14.0381 15.6293L12.8535 14.445C12.7298 14.3213 12.537 14.2995 12.3889 14.3925C11.7828 14.7753 11.116 15.0521 10.4171 15.2112C10.2463 15.2499 10.125 15.4016 10.125 15.5768V17.25H7.875V15.5768C7.87496 15.4016 7.75367 15.2499 7.58289 15.2112C6.88394 15.0521 6.21717 14.7753 5.61115 14.3925C5.55138 14.355 5.48223 14.3351 5.41164 14.3352C5.31218 14.3352 5.21684 14.3747 5.14652 14.445L3.9619 15.6293L2.37076 14.0381L3.555 12.8535C3.67893 12.7298 3.70072 12.5368 3.60749 12.3885C3.22453 11.7825 2.94768 11.1157 2.78887 10.4168C2.74999 10.246 2.59805 10.1249 2.42286 10.125H0.749988V7.875H2.42286C2.59801 7.87518 2.74999 7.75406 2.78887 7.58324C2.94771 6.88423 3.22453 6.21742 3.60749 5.6115C3.70072 5.46325 3.67893 5.27024 3.555 5.14649L2.37076 3.96148L3.9619 2.37073L5.14652 3.55497C5.2702 3.67871 5.463 3.70048 5.61115 3.60745C6.21714 3.22467 6.88394 2.94796 7.58289 2.78919C7.75382 2.75045 7.87514 2.59847 7.875 2.42318V0.749988H10.125V2.42325C10.1249 2.59854 10.2462 2.75052 10.4171 2.78926C11.1161 2.94799 11.7829 3.22471 12.3889 3.60752C12.537 3.70055 12.7298 3.67875 12.8535 3.55504L14.0381 2.3708L15.6292 3.96193L14.445 5.14656C14.3211 5.27027 14.2993 5.46332 14.3925 5.61157C14.7755 6.21752 15.0523 6.88433 15.2111 7.58331C15.25 7.7541 15.402 7.87521 15.5771 7.87507H17.25V10.125Z" fill="#838383"/>
</svg>
