<svg width="18" height="18" viewBox="0 0 18 18" fill="none" xmlns="http://www.w3.org/2000/svg">
<path d="M7.11211 8.1457L6.73945 9.37617L6.36328 8.14922C6.30352 7.94883 6.01523 7.94883 5.95547 8.14922L5.5793 9.37266L5.20664 8.14219C5.13281 7.90664 4.7707 7.97695 4.84805 8.25117L5.36484 9.8332C5.44922 10.0688 5.74453 10.0371 5.80781 9.82969L6.16289 8.70469L6.51797 9.82969C6.58125 10.0336 6.87305 10.0723 6.96094 9.82969L7.47773 8.24766C7.49883 8.17383 7.4918 8.10703 7.43555 8.05078C7.34062 7.96289 7.16133 7.9875 7.11211 8.1457ZM9.95273 8.1457L9.58008 9.37617L9.20391 8.15273C9.14414 7.95234 8.85586 7.95586 8.79609 8.15273L8.41992 9.37617L8.04727 8.1457C7.99805 7.9875 7.81875 7.96289 7.72734 8.0543C7.67109 8.11055 7.66758 8.18086 7.68867 8.25469L8.20547 9.83672C8.28984 10.0723 8.58516 10.0406 8.64844 9.8332L9.00352 8.7082L9.35859 9.8332C9.41836 10.0371 9.71367 10.0758 9.80156 9.8332L10.3184 8.25117C10.3395 8.17734 10.3324 8.11055 10.2762 8.0543C10.1812 7.96289 10.002 7.9875 9.95273 8.1457ZM13.1168 8.0543C13.0219 7.96289 12.8461 7.9875 12.7969 8.1457L12.4242 9.37617L12.048 8.15273C11.9883 7.95586 11.7 7.95234 11.6402 8.15273L11.2641 9.37617L10.8914 8.1457C10.8422 7.99102 10.6629 7.96289 10.5715 8.0543C10.5152 8.11055 10.5117 8.17734 10.5328 8.25469L11.0496 9.83672C11.134 10.0687 11.4293 10.0406 11.4926 9.8332L11.8477 8.7082L12.2027 9.8332C12.266 10.0371 12.5578 10.0758 12.6457 9.8332L13.1625 8.25117C13.1766 8.17734 13.1695 8.10703 13.1168 8.0543ZM9 0C4.03594 0 0 4.03594 0 9C0 13.9641 4.03594 18 9 18C13.9641 18 18 13.9641 18 9C18 4.03594 13.9641 0 9 0ZM9 17.6238C4.24336 17.6238 0.376172 13.7566 0.376172 9C0.376172 4.24336 4.24336 0.376172 9 0.376172C13.7566 0.376172 17.6238 4.24336 17.6238 9C17.6238 13.7566 13.7566 17.6238 9 17.6238ZM11.3977 15.2121C11.3027 15.1734 11.1937 15.2191 11.1551 15.3176C10.9547 15.8168 10.7297 16.2457 10.4871 16.6008C10.4273 16.6852 10.452 16.8012 10.5363 16.8609C10.6207 16.9207 10.7367 16.8996 10.7965 16.8117C11.0531 16.4355 11.2922 15.982 11.5031 15.4582C11.5383 15.3598 11.4926 15.2508 11.3977 15.2121ZM16.875 8.81367H15.7465C15.7254 7.43906 15.4688 6.08906 14.9977 4.87617H15.5848C15.6867 4.87617 15.7711 4.7918 15.7711 4.68984C15.7711 4.58789 15.6867 4.50352 15.5848 4.50352H14.843C14.4984 3.7125 14.073 2.99531 13.5703 2.37656C13.5035 2.2957 13.3875 2.28516 13.3066 2.34844C13.2258 2.41523 13.2152 2.53125 13.2785 2.61211C13.7285 3.16758 14.1117 3.80391 14.4316 4.50352H12.0938C11.7844 3.12188 11.3379 1.9793 10.7965 1.19531C10.7367 1.11094 10.6207 1.08984 10.5363 1.14609C10.452 1.20586 10.4309 1.32187 10.4871 1.40625C10.9898 2.1375 11.4082 3.20625 11.707 4.50352H9.28125V1.125C9.28125 1.02305 9.19688 0.938672 9.09492 0.938672C8.99297 0.938672 8.90859 1.02305 8.90859 1.125V4.5H6.29297C6.5918 3.20273 7.01016 2.13398 7.51289 1.40273C7.57266 1.31836 7.55156 1.20234 7.46367 1.14258C7.3793 1.08281 7.26328 1.10391 7.20352 1.1918C6.66562 1.97578 6.21914 3.11836 5.90625 4.5H3.56836C3.88477 3.80391 4.26797 3.16758 4.71445 2.61562C4.78125 2.54531 4.78125 2.43281 4.71094 2.35898C4.64062 2.28516 4.52109 2.28164 4.44375 2.35195C4.43672 2.35898 4.4332 2.3625 4.42617 2.36953C3.92344 2.98828 3.49453 3.70547 3.15352 4.49648H2.41523C2.31328 4.49648 2.22891 4.58086 2.22891 4.68281C2.22891 4.78477 2.31328 4.86914 2.41523 4.86914H3.00234C2.53477 6.08203 2.27813 7.43203 2.25352 8.80664H1.125C1.02305 8.80664 0.938672 8.89102 0.938672 8.99297C0.938672 9.09492 1.02305 9.1793 1.125 9.1793H2.25352C2.27461 10.5504 2.53125 11.9039 3.00234 13.1168H2.41523C2.31328 13.1168 2.22891 13.2012 2.22891 13.3031C2.22891 13.4051 2.31328 13.4895 2.41523 13.4895H3.15703C3.49805 14.284 3.92695 15.0012 4.42969 15.6164C4.50352 15.7078 4.63711 15.7078 4.71094 15.627C4.77773 15.5566 4.77773 15.4477 4.71797 15.3773C4.26797 14.8254 3.88477 14.1891 3.56836 13.4895H5.90625C6.21562 14.8676 6.66211 16.0137 7.20352 16.7977C7.26328 16.882 7.3793 16.9031 7.46367 16.8469C7.54805 16.7871 7.56914 16.6711 7.51289 16.5867C7.01016 15.8555 6.5918 14.7867 6.29297 13.4895H8.90859V16.8645C8.90859 16.9664 8.99297 17.0508 9.09492 17.0508C9.19688 17.0508 9.28125 16.9664 9.28125 16.8645V13.4895H10.2023C10.3043 13.4895 10.3887 13.4051 10.3887 13.3031C10.3887 13.2012 10.3043 13.1168 10.2023 13.1168H9.28125V11.4293H10.5258C10.7754 11.4293 10.7754 11.0531 10.5258 11.0531H4.87617C4.35938 11.0531 3.9375 10.6313 3.9375 10.1145V7.86445C3.9375 7.34766 4.35938 6.92578 4.87617 6.92578H13.1273C13.6441 6.92578 14.066 7.34766 14.066 7.86445V10.1145C14.066 10.6313 13.6441 11.0531 13.1273 11.0531H12.1008C11.9988 11.0531 11.9145 11.1375 11.9145 11.2395C11.9145 11.3414 11.9988 11.4258 12.1008 11.4258H13.1273C13.8516 11.4258 14.4387 10.8387 14.4387 10.1145V9.17578H15.3703C15.3492 10.5539 15.082 11.9074 14.5934 13.1133H14.3824C14.2805 13.1133 14.1961 13.1977 14.1961 13.2996C14.1961 13.4016 14.2805 13.4859 14.3824 13.4859H14.4281C14.1117 14.1855 13.732 14.8219 13.282 15.3703C13.2152 15.4406 13.2152 15.5531 13.2855 15.627C13.3629 15.7078 13.4965 15.7008 13.5668 15.6164C14.0695 14.9977 14.4984 14.2805 14.8395 13.4895H15.5813C15.6832 13.4895 15.7676 13.4051 15.7676 13.3031C15.7676 13.2012 15.6832 13.1168 15.5813 13.1168H14.9941C15.4652 11.9039 15.7219 10.5504 15.743 9.1793H16.875C16.977 9.1793 17.0613 9.09492 17.0613 8.99297C17.0613 8.89102 16.977 8.81367 16.875 8.81367ZM4.87617 11.4363H8.90859V13.1238H6.21211C6.13125 12.7371 6.06445 12.3504 6.01172 11.9742C5.99766 11.8723 5.90273 11.7984 5.80078 11.8125C5.69883 11.8266 5.625 11.9215 5.63906 12.0234C5.68828 12.3855 5.75156 12.7547 5.82891 13.1238H3.40664C2.91797 11.918 2.65078 10.5645 2.62969 9.18633H3.56133V10.125C3.56133 10.8492 4.15195 11.4363 4.87617 11.4363ZM3.56133 7.875V8.81367H2.62969C2.65078 7.43203 2.91797 6.07852 3.40313 4.87617H5.82891C5.75859 5.23125 5.6918 5.59688 5.63906 5.97656C5.625 6.07852 5.69531 6.17344 5.79727 6.1875C5.8957 6.20156 5.99414 6.13125 6.0082 6.0293C6.06445 5.63203 6.13125 5.24883 6.20859 4.87969H8.90508V5.81836C8.90508 5.92031 8.98945 6.00469 9.09141 6.00469C9.19336 6.00469 9.27773 5.92031 9.27773 5.81836V4.87969H11.7879C11.8969 5.40703 11.9848 5.97305 12.0516 6.56719H4.87617C4.15195 6.56367 3.56133 7.15078 3.56133 7.875ZM13.1238 6.56367H12.4313C12.3645 5.96953 12.2801 5.40352 12.1711 4.87617H14.5934C15.0785 6.07852 15.3457 7.43203 15.3668 8.81367H14.4352V7.875C14.4387 7.15078 13.848 6.56367 13.1238 6.56367ZM12.8391 13.8129L13.4859 13.7953C13.8234 13.7848 13.9605 13.3559 13.6898 13.152L11.4926 11.4996C11.2711 11.3309 10.9477 11.4715 10.9195 11.7492L10.6523 14.4844C10.6207 14.8219 11.0285 15.0117 11.2641 14.7691L11.7141 14.3051L12.048 15.0609C12.1289 15.2402 12.3398 15.3246 12.5191 15.2437L12.9867 15.0398C13.166 14.959 13.2504 14.748 13.1695 14.5687L12.8391 13.8129ZM12.3855 14.8957L11.9461 13.8973C11.9215 13.841 11.8688 13.7988 11.809 13.7883C11.7984 13.7848 11.7879 13.7848 11.7773 13.7848C11.7281 13.7848 11.6789 13.8059 11.6438 13.841L11.032 14.4703L11.2922 11.8125L13.4262 13.4191L12.5508 13.4437C12.4875 13.4437 12.4313 13.4789 12.3961 13.5316C12.3609 13.5844 12.3574 13.6512 12.382 13.7074L12.818 14.7059L12.3855 14.8957Z" fill="#FE5000"/>
</svg>
