<svg width="23" height="23" viewBox="0 0 23 23" fill="none" xmlns="http://www.w3.org/2000/svg">
<path d="M16.7741 0H6.22589C2.79288 0 0 2.79288 0 6.22589V16.7743C0 20.2071 2.79288 23 6.22589 23H16.7743C20.2071 23 23 20.2071 23 16.7743V6.22589C23 2.79288 20.2071 0 16.7741 0V0ZM21.6516 16.7743C21.6516 19.4636 19.4636 21.6516 16.7741 21.6516H6.22589C3.53637 21.6516 1.34836 19.4636 1.34836 16.7743V6.22589C1.34836 3.53637 3.53637 1.34836 6.22589 1.34836H16.7743C19.4636 1.34836 21.6516 3.53637 21.6516 6.22589V16.7743Z" fill="#FE5000" fill-opacity="0.74"/>
<path d="M11.499 4.89062C7.85613 4.89062 4.89258 7.85418 4.89258 11.497C4.89258 15.1398 7.85613 18.1034 11.499 18.1034C15.1418 18.1034 18.1053 15.1398 18.1053 11.497C18.1053 7.85418 15.1418 4.89062 11.499 4.89062ZM11.499 16.687C8.63734 16.687 6.30901 14.3588 6.30901 11.497C6.30901 8.63539 8.63734 6.30706 11.499 6.30706C14.3608 6.30706 16.6889 8.63539 16.6889 11.497C16.6889 14.3588 14.3608 16.687 11.499 16.687Z" fill="#FE5000" fill-opacity="0.74"/>
<path d="M18.1068 2.92969C17.0274 2.92969 16.1494 3.80782 16.1494 4.88704C16.1494 5.96645 17.0274 6.84458 18.1068 6.84458C19.1862 6.84458 20.0643 5.96645 20.0643 4.88704C20.0643 3.80763 19.1862 2.92969 18.1068 2.92969ZM18.1068 5.42416C17.8107 5.42416 17.5697 5.18314 17.5697 4.88704C17.5697 4.59076 17.8107 4.34992 18.1068 4.34992C18.4031 4.34992 18.6441 4.59076 18.6441 4.88704C18.6441 5.18314 18.4031 5.42416 18.1068 5.42416Z" fill="#FE5000" fill-opacity="0.74"/>
</svg>
