<svg width="13" height="13" viewBox="0 0 13 13" fill="none" xmlns="http://www.w3.org/2000/svg">
<path d="M11.7 0.648438H1.3C0.583267 0.648438 0 1.2317 0 1.94844V8.0151C0 8.73184 0.583267 9.3151 1.3 9.3151H5.2V10.1818H4.76667C4.04993 10.1818 3.46667 10.765 3.46667 11.4818V11.9151C3.46667 12.1543 3.6608 12.3484 3.9 12.3484H9.1C9.3392 12.3484 9.53333 12.1543 9.53333 11.9151V11.4818C9.53333 10.765 8.95007 10.1818 8.23333 10.1818H7.8V9.3151H11.7C12.4167 9.3151 13 8.73184 13 8.0151V1.94844C13 1.2317 12.4167 0.648438 11.7 0.648438ZM8.23333 11.0484C8.4721 11.0484 8.66667 11.243 8.66667 11.4818H4.33333C4.33333 11.243 4.5279 11.0484 4.76667 11.0484H5.63333H7.36667H8.23333ZM6.06667 10.1818V9.3151H6.93333V10.1818H6.06667ZM12.1333 8.0151C12.1333 8.25387 11.9388 8.44844 11.7 8.44844H1.3C1.06123 8.44844 0.866667 8.25387 0.866667 8.0151V7.58177H12.1333V8.0151ZM12.1333 7.14844H0.866667V1.94844C0.866667 1.70967 1.06123 1.5151 1.3 1.5151H11.7C11.9388 1.5151 12.1333 1.70967 12.1333 1.94844V7.14844Z" fill="#838383"/>
<path d="M8.10641 2.94739C7.93698 2.77795 7.66311 2.77795 7.49368 2.94739L6.50004 3.94102L5.50641 2.94739C5.33698 2.77795 5.06311 2.77795 4.89368 2.94739C4.72424 3.11682 4.72424 3.39069 4.89368 3.56012L5.88731 4.55375L4.89368 5.54739C4.72424 5.71682 4.72424 5.99069 4.89368 6.16012C4.97818 6.24462 5.08911 6.28709 5.20004 6.28709C5.31098 6.28709 5.42191 6.24462 5.50641 6.16012L6.50004 5.16649L7.49368 6.16012C7.57818 6.24462 7.68911 6.28709 7.80004 6.28709C7.91098 6.28709 8.02191 6.24462 8.10641 6.16012C8.27584 5.99069 8.27584 5.71682 8.10641 5.54739L7.11278 4.55375L8.10641 3.56012C8.27584 3.39069 8.27584 3.11682 8.10641 2.94739Z" fill="#838383"/>
</svg>
