<svg width="17" height="17" viewBox="0 0 17 17" fill="none" xmlns="http://www.w3.org/2000/svg">
<path d="M15.6515 10.7914C15.0881 10.2963 14.4048 9.86859 13.6205 9.52009C13.2853 9.37119 12.8929 9.52216 12.744 9.85731C12.5951 10.1925 12.7461 10.5848 13.0813 10.7338C13.7426 11.0277 14.3125 11.3827 14.7749 11.7891C15.3449 12.29 15.6719 13.0152 15.6719 13.7793V15.0078C15.6719 15.374 15.374 15.6719 15.0078 15.6719H1.99219C1.62605 15.6719 1.32812 15.374 1.32812 15.0078V13.7793C1.32812 13.0152 1.6551 12.29 2.22513 11.7891C2.89606 11.1994 4.8509 9.82812 8.5 9.82812C11.2096 9.82812 13.4141 7.62362 13.4141 4.91406C13.4141 2.20451 11.2096 0 8.5 0C5.79044 0 3.58594 2.20451 3.58594 4.91406C3.58594 6.49809 4.33949 7.90922 5.50679 8.80843C3.3709 9.27794 2.04225 10.1817 1.34849 10.7914C0.491562 11.5443 0 12.6333 0 13.7793V15.0078C0 16.1064 0.893631 17 1.99219 17H15.0078C16.1064 17 17 16.1064 17 15.0078V13.7793C17 12.6333 16.5084 11.5443 15.6515 10.7914ZM4.91406 4.91406C4.91406 2.93679 6.52273 1.32812 8.5 1.32812C10.4773 1.32812 12.0859 2.93679 12.0859 4.91406C12.0859 6.89133 10.4773 8.5 8.5 8.5C6.52273 8.5 4.91406 6.89133 4.91406 4.91406Z" fill="#FE5000"/>
</svg>
