<svg width="11" height="7" viewBox="0 0 11 7" fill="none" xmlns="http://www.w3.org/2000/svg">
<path d="M5.41406 5.79688C4.11741 5.79688 3.0625 4.7665 3.0625 3.5C3.0625 2.2335 4.11741 1.20312 5.41406 1.20312C6.71072 1.20312 7.76562 2.2335 7.76562 3.5C7.76562 4.7665 6.71072 5.79688 5.41406 5.79688ZM5.41406 1.85938C4.48788 1.85938 3.73438 2.59536 3.73438 3.5C3.73438 4.40464 4.48788 5.14062 5.41406 5.14062C6.34024 5.14062 7.09375 4.40464 7.09375 3.5C7.09375 2.59536 6.34024 1.85938 5.41406 1.85938Z" fill="#8F8F8F"/>
<path d="M5.41406 7C3.38739 7 1.44691 5.50885 0.166019 3.96079C-0.0553396 3.69324 -0.0553396 3.30486 0.166019 3.03733C0.488064 2.6481 1.16295 1.89717 2.06449 1.24089C4.33521 -0.412035 6.48851 -0.415223 8.76363 1.24089C9.82277 2.01187 10.6621 3.02287 10.6621 3.03733C10.8835 3.30486 10.8835 3.69324 10.6621 3.96077C9.3814 5.50864 7.44119 7 5.41406 7ZM5.41406 0.664963C3.16893 0.664963 1.22274 2.80619 0.67975 3.46244C0.662205 3.48366 0.662205 3.51446 0.67975 3.53567C1.22276 4.19193 3.16893 6.33315 5.41406 6.33315C7.65919 6.33315 9.60539 4.19193 10.1484 3.53567C10.18 3.49739 10.1463 3.46244 10.1484 3.46244C9.60537 2.80619 7.65919 0.664963 5.41406 0.664963Z" fill="#8F8F8F"/>
</svg>
