<svg width="28" height="21" viewBox="0 0 28 21" fill="none" xmlns="http://www.w3.org/2000/svg">
<path d="M27.794 4.82664L27.7927 4.81428C27.769 4.59695 27.5329 2.66391 26.5584 1.6807C25.4319 0.524254 24.1549 0.383766 23.5407 0.316406C23.4899 0.310844 23.4433 0.305695 23.4017 0.300339L23.3528 0.295395C19.6511 0.0358429 14.0608 0.000411987 14.0049 0.000205994L13.9999 0L13.995 0.000205994C13.9391 0.000411987 8.34878 0.0358429 4.61381 0.295395L4.56447 0.300339C4.52473 0.305489 4.48094 0.310226 4.4333 0.315582C3.82619 0.383148 2.56283 0.523842 1.43319 1.72211C0.505003 2.69481 0.236693 4.58645 0.209136 4.79903L0.205932 4.82664C0.197601 4.91707 0 7.06991 0 9.23119V11.2516C0 13.4129 0.197601 15.5657 0.205932 15.6563L0.207427 15.6699C0.231139 15.8838 0.466978 17.7814 1.43704 18.765C2.49618 19.8827 3.83537 20.0306 4.55571 20.1101C4.66957 20.1227 4.76762 20.1334 4.83448 20.1447L4.89921 20.1534C7.0365 20.3495 13.7376 20.4461 14.0217 20.45L14.0303 20.4502L14.0388 20.45C14.0948 20.4498 19.6849 20.4144 23.3865 20.1548L23.4354 20.1499C23.4822 20.1439 23.5348 20.1386 23.5924 20.1328C24.1961 20.071 25.4527 19.9427 26.5667 18.7607C27.4949 17.7878 27.7634 15.8961 27.7908 15.6837L27.794 15.6561C27.8023 15.5655 28.0001 13.4129 28.0001 11.2516V9.23119C27.9999 7.06991 27.8023 4.91727 27.794 4.82664ZM26.3591 11.2516C26.3591 13.252 26.1779 15.3121 26.1608 15.5012C26.0912 16.0222 25.8081 17.219 25.3559 17.693C24.6586 18.4327 23.9423 18.5061 23.4194 18.5594C23.3562 18.5658 23.2976 18.572 23.2447 18.5784C19.6644 18.828 14.2851 18.8663 14.0373 18.8678C13.7594 18.8639 7.15634 18.7664 5.08421 18.5808C4.97804 18.5641 4.86332 18.5514 4.74241 18.5382C4.1291 18.4704 3.28957 18.3777 2.644 17.693L2.62883 17.6773C2.1845 17.231 1.90957 16.1118 1.83971 15.5074C1.82668 15.3644 1.64083 13.28 1.64083 11.2516V9.23119C1.64083 7.23306 1.82156 5.17518 1.83907 4.98216C1.92217 4.36851 2.21056 3.24419 2.644 2.78977C3.36263 2.0276 4.12035 1.94314 4.6215 1.88731C4.66935 1.88196 4.714 1.87701 4.75523 1.87186C8.38766 1.62096 13.8055 1.58368 13.9999 1.58224C14.1943 1.58347 19.6103 1.62096 23.2105 1.87186C23.2547 1.87722 23.303 1.88258 23.3549 1.88834C23.8704 1.94499 24.6494 2.03069 25.3644 2.76608L25.3711 2.77288C25.8154 3.21927 26.0903 4.358 26.1602 4.97454C26.1726 5.10947 26.3591 7.19845 26.3591 9.23119V11.2516Z" fill="#FE5000" fill-opacity="0.74"/>
</svg>
